<svg width="24" height="24" viewBox="0 0 24 24" fill="none" xmlns="http://www.w3.org/2000/svg">
<path d="M5.30284 7.27407C4.87147 3.94259 7.56226 1 11.04 1H12.7842C14.4442 1 15.9252 1.66978 16.9736 2.73218C15.3272 2.78774 14.0102 4.09371 14.0102 5.69663C14.0102 7.33487 15.3859 8.66292 17.0829 8.66292C17.5708 8.66292 18.0322 8.55312 18.4419 8.35772C18.4899 9.14777 18.8505 9.89857 19.462 10.4469L19.507 10.4872C21.1593 11.9686 21.48 14.3779 20.2692 16.2145C19.4115 17.5155 17.9248 18.3034 16.3273 18.3034H7.90746C6.05546 18.3034 4.36623 17.2819 3.55796 15.6733L3.4521 15.4626C2.58496 13.7368 2.99064 11.6663 4.45084 10.3655C5.1555 9.73777 5.50304 8.8203 5.38411 7.90178L5.30284 7.27407Z" fill="#444A5B"/>
<path d="M8.61614 19.9348C8.95553 19.6891 9.43701 19.7555 9.69156 20.0831L9.99882 20.4787C11.0742 21.8629 13.2251 21.8629 14.3005 20.4787L14.6078 20.0831C14.8623 19.7555 15.3438 19.6891 15.6832 19.9348C16.0226 20.1806 16.0914 20.6454 15.8368 20.973L15.5295 21.3685C13.8396 23.5438 10.4597 23.5438 8.76977 21.3685L8.46251 20.973C8.20796 20.6454 8.27675 20.1806 8.61614 19.9348Z" fill="#444A5B"/>
<path d="M19.3188 5.69663C19.3188 6.78879 18.4017 7.67416 17.2704 7.67416C16.1391 7.67416 15.222 6.78879 15.222 5.69663C15.222 4.60447 16.1391 3.7191 17.2704 3.7191C18.4017 3.7191 19.3188 4.60447 19.3188 5.69663Z" fill="#6D61FF"/>
</svg>
