<svg width="14" height="14" viewBox="0 0 14 14" fill="none" xmlns="http://www.w3.org/2000/svg">
<circle cx="12.6688" cy="12.6688" r="1.3309" fill="#444A5B"/>
<path fill-rule="evenodd" clip-rule="evenodd" d="M0 5.98907C0 2.6814 2.6814 0 5.98907 0C9.29674 0 11.9781 2.6814 11.9781 5.98907C11.9781 9.29674 9.29674 11.9781 5.98907 11.9781C2.6814 11.9781 0 9.29674 0 5.98907ZM5.29604 1.95922C5.33916 2.23147 5.15341 2.48712 4.88117 2.53024C3.67102 2.72191 2.72191 3.67102 2.53024 4.88117C2.48712 5.15341 2.23147 5.33916 1.95922 5.29604C1.68698 5.25292 1.50123 4.99726 1.54435 4.72502C1.80367 3.08775 3.08775 1.80367 4.72502 1.54435C4.99726 1.50123 5.25292 1.68698 5.29604 1.95922Z" fill="#444A5B"/>
</svg>
