<svg width="24" height="24" viewBox="0 0 24 24" fill="none" xmlns="http://www.w3.org/2000/svg">
<path d="M9.81905 12C9.81905 10.7951 10.7955 9.81828 12.0001 9.81828C13.2046 9.81828 14.1811 10.7951 14.1811 12C14.1811 13.2049 13.2046 14.1817 12.0001 14.1817C10.7955 14.1817 9.81905 13.2049 9.81905 12Z" fill="#444A5B"/>
<path fill-rule="evenodd" clip-rule="evenodd" d="M8.69 3.49835C9.64035 0.167218 14.3597 0.167217 15.31 3.49835C15.6045 4.53045 16.6645 5.14265 17.7052 4.88169C21.0643 4.03942 23.4239 8.1278 21.0152 10.6167C20.2689 11.3878 20.2689 12.6122 21.0152 13.3833C23.4239 15.8722 21.0643 19.9606 17.7052 19.1183C16.6645 18.8573 15.6045 19.4695 15.31 20.5017C14.3597 23.8328 9.64035 23.8328 8.69 20.5017C8.39555 19.4695 7.33554 18.8573 6.29478 19.1183C2.93571 19.9606 0.576052 15.8722 2.98477 13.3833C3.73108 12.6122 3.73108 11.3878 2.98477 10.6167C0.576052 8.1278 2.93571 4.03942 6.29477 4.88169C7.33554 5.14265 8.39555 4.53045 8.69 3.49835ZM12.0001 8.3638C9.9925 8.3638 8.36505 9.99178 8.36505 12C8.36505 14.0082 9.9925 15.6362 12.0001 15.6362C14.0076 15.6362 15.6351 14.0082 15.6351 12C15.6351 9.99178 14.0076 8.3638 12.0001 8.3638Z" fill="#444A5B"/>
</svg>
