<svg width="40" height="40" viewBox="0 0 40 40" fill="none" xmlns="http://www.w3.org/2000/svg">
<rect width="40" height="40" rx="10" fill="#0BE288"/>
<path fill-rule="evenodd" clip-rule="evenodd" d="M11.9549 13.0611C11 14.3754 11 16.2503 11 20C11 23.7497 11 25.6246 11.9549 26.9389C12.2633 27.3634 12.6366 27.7367 13.0611 28.0451C14.3754 29 16.2503 29 20 29C23.7497 29 25.6246 29 26.9389 28.0451C27.3634 27.7367 27.7367 27.3634 28.0451 26.9389C29 25.6246 29 23.7497 29 20C29 16.2503 29 14.3754 28.0451 13.0611C27.7367 12.6366 27.3634 12.2633 26.9389 11.9549C25.6246 11 23.7497 11 20 11C16.2503 11 14.3754 11 13.0611 11.9549C12.6366 12.2633 12.2633 12.6366 11.9549 13.0611ZM20.75 17C20.75 16.5858 20.4142 16.25 20 16.25C19.5858 16.25 19.25 16.5858 19.25 17V19.25H17C16.5858 19.25 16.25 19.5858 16.25 20C16.25 20.4142 16.5858 20.75 17 20.75H19.25V23C19.25 23.4142 19.5858 23.75 20 23.75C20.4142 23.75 20.75 23.4142 20.75 23V20.75H23C23.4142 20.75 23.75 20.4142 23.75 20C23.75 19.5858 23.4142 19.25 23 19.25H20.75V17Z" fill="white"/>
</svg>
