<svg width="252" height="16" viewBox="0 0 252 16" fill="none" xmlns="http://www.w3.org/2000/svg">
<g clip-path="url(#clip0_210_767)">
<path d="M228 2C228 0.895431 228.895 0 230 0H250C251.105 0 252 0.895431 252 2V14C252 15.1046 251.105 16 250 16H230C228.895 16 228 15.1046 228 14V2Z" fill="#CCDEFF"/>
<path d="M233.385 5.75871C233.135 5.58638 232.808 5.5 232.404 5.5H230.842C230.718 5.5 230.65 5.56187 230.637 5.6855L230.002 9.66942C229.995 9.70855 230.005 9.74433 230.031 9.77687C230.057 9.80946 230.09 9.82567 230.129 9.82567H230.871C231.001 9.82567 231.073 9.76394 231.086 9.64017L231.262 8.56611C231.268 8.51406 231.291 8.47174 231.33 8.43914C231.369 8.40661 231.418 8.38533 231.476 8.3756C231.535 8.36593 231.59 8.36103 231.642 8.36103C231.694 8.36103 231.756 8.36435 231.828 8.37082C231.9 8.3773 231.945 8.38049 231.965 8.38049C232.524 8.38049 232.964 8.22275 233.283 7.90692C233.602 7.59126 233.761 7.15353 233.761 6.59355C233.761 6.20948 233.636 5.93122 233.385 5.75862V5.75871ZM232.58 6.95496C232.547 7.18284 232.463 7.33249 232.326 7.40412C232.189 7.47584 231.994 7.51154 231.74 7.51154L231.418 7.52127L231.584 6.47643C231.597 6.40489 231.639 6.36907 231.711 6.36907H231.896C232.157 6.36907 232.346 6.40659 232.463 6.48133C232.58 6.55624 232.619 6.71416 232.58 6.95496Z" fill="#003087"/>
<path d="M249.873 5.5H249.15C249.079 5.5 249.036 5.53582 249.023 5.60748L248.389 9.6696L248.379 9.68912C248.379 9.72183 248.392 9.7526 248.418 9.78191C248.444 9.81116 248.477 9.82581 248.516 9.82581H249.16C249.284 9.82581 249.352 9.76409 249.365 9.64032L250 5.64655V5.63685C250 5.54567 249.957 5.50012 249.873 5.50012V5.5Z" fill="#009CDE"/>
<path d="M241.144 7.07224C241.144 7.03977 241.131 7.00879 241.105 6.97957C241.079 6.95029 241.049 6.93555 241.017 6.93555H240.265C240.193 6.93555 240.135 6.96826 240.089 7.03317L239.054 8.55651L238.624 7.09182C238.592 6.98775 238.52 6.93555 238.41 6.93555H237.677C237.645 6.93555 237.615 6.95023 237.589 6.97957C237.563 7.00879 237.55 7.03983 237.55 7.07224C237.55 7.08535 237.614 7.27732 237.741 7.64837C237.868 8.01954 238.004 8.41991 238.151 8.84958C238.297 9.27916 238.374 9.50713 238.38 9.53295C237.846 10.2622 237.58 10.6527 237.58 10.7047C237.58 10.7894 237.622 10.8317 237.707 10.8317H238.458C238.53 10.8317 238.589 10.7992 238.634 10.7341L241.124 7.14056C241.137 7.12767 241.144 7.10499 241.144 7.07221V7.07224Z" fill="#003087"/>
<path d="M248.145 6.93554H247.402C247.311 6.93554 247.256 7.04298 247.237 7.25785C247.067 6.99753 246.758 6.86719 246.309 6.86719C245.84 6.86719 245.441 7.04298 245.113 7.39452C244.784 7.74605 244.62 8.15955 244.62 8.63471C244.62 9.01887 244.732 9.3248 244.956 9.55256C245.181 9.78056 245.482 9.89433 245.86 9.89433C246.049 9.89433 246.241 9.8552 246.436 9.77715C246.631 9.69904 246.784 9.59494 246.895 9.46469C246.895 9.47122 246.888 9.50042 246.875 9.55247C246.862 9.60464 246.856 9.64383 246.856 9.66965C246.856 9.77393 246.898 9.82586 246.983 9.82586H247.657C247.78 9.82586 247.852 9.76414 247.871 9.64037L248.272 7.09175C248.278 7.05266 248.268 7.01693 248.242 6.98434C248.216 6.95186 248.184 6.93554 248.145 6.93554ZM246.87 8.85928C246.704 9.02203 246.504 9.10336 246.27 9.10336C246.081 9.10336 245.928 9.05137 245.811 8.94715C245.694 8.84322 245.635 8.69998 245.635 8.5175C245.635 8.27682 245.716 8.0732 245.879 7.90723C246.042 7.74122 246.244 7.65825 246.485 7.65825C246.667 7.65825 246.818 7.71194 246.939 7.8193C247.059 7.92675 247.119 8.07485 247.119 8.26369C247.119 8.49801 247.036 8.69661 246.87 8.85928Z" fill="#009CDE"/>
<path d="M237.052 6.93554H236.31C236.219 6.93554 236.163 7.04298 236.144 7.25785C235.968 6.99753 235.659 6.86719 235.216 6.86719C234.747 6.86719 234.349 7.04298 234.02 7.39452C233.691 7.74605 233.527 8.15955 233.527 8.63471C233.527 9.01887 233.639 9.3248 233.864 9.55256C234.088 9.78056 234.389 9.89433 234.767 9.89433C234.949 9.89433 235.138 9.8552 235.333 9.77715C235.529 9.69904 235.685 9.59494 235.802 9.46469C235.776 9.54274 235.763 9.61112 235.763 9.66965C235.763 9.77393 235.805 9.82586 235.89 9.82586H236.564C236.687 9.82586 236.759 9.76414 236.778 9.64037L237.179 7.09175C237.185 7.05266 237.175 7.01693 237.15 6.98434C237.123 6.95186 237.091 6.93554 237.052 6.93554ZM235.778 8.86411C235.612 9.02379 235.408 9.10336 235.167 9.10336C234.978 9.10336 234.827 9.05137 234.713 8.94715C234.599 8.84322 234.542 8.69998 234.542 8.5175C234.542 8.27682 234.624 8.0732 234.787 7.90723C234.949 7.74122 235.151 7.65821 235.392 7.65821C235.574 7.65821 235.725 7.71194 235.846 7.8193C235.966 7.92675 236.027 8.07485 236.027 8.26369C236.027 8.50455 235.944 8.70479 235.778 8.86411Z" fill="#003087"/>
<path d="M244.478 5.75871C244.228 5.58638 243.901 5.5 243.497 5.5H241.944C241.814 5.5 241.742 5.56187 241.729 5.6855L241.095 9.66942C241.088 9.70855 241.098 9.74433 241.124 9.77687C241.15 9.80946 241.183 9.82567 241.222 9.82567H242.022C242.1 9.82567 242.152 9.7834 242.179 9.69876L242.354 8.56611C242.361 8.51406 242.384 8.47174 242.423 8.43914C242.462 8.40661 242.511 8.38533 242.569 8.3756C242.628 8.36593 242.683 8.36103 242.735 8.36103C242.787 8.36103 242.849 8.36435 242.921 8.37082C242.992 8.3773 243.038 8.38049 243.057 8.38049C243.617 8.38049 244.057 8.22275 244.376 7.90692C244.695 7.59126 244.854 7.15353 244.854 6.59355C244.854 6.20948 244.729 5.93119 244.478 5.75862V5.75871ZM243.477 7.36502C243.334 7.46265 243.119 7.51145 242.833 7.51145L242.52 7.52124L242.686 6.47637C242.699 6.40486 242.742 6.36898 242.813 6.36898H242.989C243.132 6.36898 243.246 6.37552 243.331 6.3885C243.415 6.40158 243.497 6.4422 243.575 6.51052C243.653 6.57889 243.692 6.67822 243.692 6.80835C243.692 7.08187 243.621 7.26731 243.477 7.36502Z" fill="#009CDE"/>
</g>
<g clip-path="url(#clip1_210_767)">
<path d="M190 2C190 0.895431 190.895 0 192 0H212C213.105 0 214 0.895431 214 2V14C214 15.1046 213.105 16 212 16H192C190.895 16 190 15.1046 190 14V2Z" fill="#CCEFFF"/>
<path d="M204.624 12.7175H199.375V3.2832H204.624V12.7175Z" fill="#6C6BBD"/>
<path d="M199.711 8C199.711 6.08621 200.607 4.38146 202.002 3.28285C200.982 2.4795 199.694 2 198.295 2C194.981 2 192.295 4.68625 192.295 8C192.295 11.3138 194.981 14 198.295 14C199.694 14 200.982 13.5205 202.002 12.7171C200.607 11.6185 199.711 9.91379 199.711 8Z" fill="#EB001B"/>
<path d="M211.704 8C211.704 11.3138 209.018 14 205.705 14C204.305 14 203.017 13.5205 201.997 12.7171C203.392 11.6185 204.288 9.91379 204.288 8C204.288 6.08621 203.392 4.38146 201.997 3.28285C203.017 2.4795 204.305 2 205.705 2C209.018 2 211.704 4.68625 211.704 8Z" fill="#0099DF"/>
</g>
<g clip-path="url(#clip2_210_767)">
<path d="M152 2C152 0.895431 152.895 0 154 0H174C175.105 0 176 0.895431 176 2V14C176 15.1046 175.105 16 174 16H154C152.895 16 152 15.1046 152 14V2Z" fill="#D4E4F7"/>
<path opacity="0.5" fill-rule="evenodd" clip-rule="evenodd" d="M156.369 9.54318C157.21 9.54318 157.879 8.8526 157.879 7.98937C157.879 7.12613 157.189 6.43555 156.369 6.43555C155.527 6.43555 154.858 7.12613 154.858 7.98937C154.858 8.8526 155.527 9.54318 156.369 9.54318Z" fill="white"/>
<path opacity="0.5" fill-rule="evenodd" clip-rule="evenodd" d="M158.721 8.31369L157.728 7.29939C157.706 7.27781 157.685 7.27781 157.663 7.29939L156.994 7.96839C156.973 7.98998 156.973 8.01155 156.994 8.03313L157.318 8.35685L157.771 8.40001C157.793 8.40001 157.814 8.42159 157.814 8.44317V8.85321L157.987 9.02585C158.009 9.04743 158.03 9.04743 158.052 9.02585L158.721 8.35685C158.742 8.35685 158.742 8.33527 158.721 8.31369Z" fill="url(#paint0_linear_210_767)"/>
<path opacity="0.5" fill-rule="evenodd" clip-rule="evenodd" d="M157.814 9.90997V8.46406C157.814 8.44248 157.793 8.4209 157.771 8.4209H156.821C156.8 8.4209 156.778 8.44248 156.778 8.46406V8.91725L157.08 9.30571C157.102 9.32729 157.102 9.34887 157.08 9.37045L156.778 9.67258V9.90997C156.778 9.93155 156.8 9.95313 156.821 9.95313H157.771C157.793 9.95313 157.814 9.93155 157.814 9.90997Z" fill="url(#paint1_linear_210_767)"/>
<path opacity="0.5" fill-rule="evenodd" clip-rule="evenodd" d="M156.088 10.3853L157.081 9.37103C157.102 9.34944 157.102 9.32786 157.081 9.30628L156.412 8.63728C156.39 8.6157 156.368 8.6157 156.347 8.63728L156.023 8.96099L155.958 9.43576C155.958 9.45735 155.937 9.47893 155.915 9.47893H155.505L155.333 9.65157C155.311 9.67315 155.311 9.69474 155.333 9.71632L156.002 10.3853C156.023 10.4069 156.066 10.4069 156.088 10.3853Z" fill="url(#paint2_linear_210_767)"/>
<path opacity="0.5" fill-rule="evenodd" clip-rule="evenodd" d="M154.513 9.47924H155.915C155.937 9.47924 155.958 9.45766 155.958 9.43608V8.48652C155.958 8.46494 155.937 8.44336 155.915 8.44336H155.441L155.095 8.72391C155.074 8.74549 155.052 8.74549 155.031 8.72391L154.75 8.44336H154.513C154.491 8.44336 154.469 8.46494 154.469 8.48652V9.43608C154.448 9.45766 154.469 9.47924 154.513 9.47924Z" fill="url(#paint3_linear_210_767)"/>
<path opacity="0.5" fill-rule="evenodd" clip-rule="evenodd" d="M154.922 6.09009V7.53601C154.922 7.55759 154.944 7.57916 154.966 7.57916H155.915C155.937 7.57916 155.958 7.55759 155.958 7.53601V7.08281L155.656 6.71593C155.635 6.69435 155.635 6.67277 155.656 6.65119L155.958 6.34906V6.11167C155.958 6.09009 155.937 6.06851 155.915 6.06851H154.966C154.944 6.04693 154.922 6.06851 154.922 6.09009Z" fill="url(#paint4_linear_210_767)"/>
<path opacity="0.5" fill-rule="evenodd" clip-rule="evenodd" d="M156.671 5.61579L155.678 6.63009C155.656 6.65167 155.656 6.67325 155.678 6.69483L156.347 7.36383C156.368 7.38541 156.39 7.38541 156.412 7.36383L156.735 7.04012L156.778 6.56535C156.778 6.54377 156.8 6.52218 156.822 6.52218H157.232L157.404 6.34954C157.426 6.32796 157.426 6.30638 157.404 6.28479L156.735 5.61579C156.714 5.59421 156.692 5.59421 156.671 5.61579Z" fill="url(#paint5_linear_210_767)"/>
<path opacity="0.5" fill-rule="evenodd" clip-rule="evenodd" d="M158.246 6.52246H156.843C156.822 6.52246 156.8 6.54404 156.8 6.56563V7.51518C156.8 7.53676 156.822 7.55834 156.843 7.55834H157.318L157.664 7.27779C157.685 7.25621 157.707 7.25621 157.728 7.27779L158.009 7.55834H158.246C158.268 7.55834 158.289 7.53676 158.289 7.51518V6.56563C158.289 6.54404 158.268 6.52246 158.246 6.52246Z" fill="url(#paint6_linear_210_767)"/>
<path opacity="0.5" fill-rule="evenodd" clip-rule="evenodd" d="M154.016 7.68743L155.009 8.70173C155.03 8.72331 155.052 8.72331 155.074 8.70173L155.743 8.03273C155.764 8.01114 155.764 7.98957 155.743 7.96799L155.419 7.62269L154.966 7.57953C154.944 7.57953 154.923 7.55795 154.923 7.53637V7.12634L154.75 6.95369C154.728 6.9321 154.707 6.9321 154.685 6.95369L154.016 7.62269C153.995 7.64427 153.995 7.66585 154.016 7.68743Z" fill="url(#paint7_linear_210_767)"/>
<path opacity="0.5" fill-rule="evenodd" clip-rule="evenodd" d="M157.815 8.46471V8.87474L157.987 9.04739L157.815 8.46471ZM157.728 7.27776L158.009 7.55832H158.246L157.728 7.27776ZM156.822 6.52244H157.232L157.405 6.34979L156.822 6.52244ZM155.656 6.63034L155.959 6.32821V6.09082L155.656 6.63034ZM154.923 7.53674V7.1267L154.75 6.95405L154.923 7.53674ZM155.031 8.7021L154.75 8.42155H154.513L155.031 8.7021ZM155.915 9.47901H155.505L155.333 9.65165L155.915 9.47901ZM157.081 9.3711L156.779 9.67323V9.91062L157.081 9.3711Z" fill="#055387"/>
<path d="M161.095 8.4001C161.095 8.44326 161.095 8.46485 161.073 8.50801C161.073 8.55117 161.052 8.57275 161.03 8.61591C161.008 8.65907 160.965 8.68065 160.922 8.70223C160.879 8.72381 160.836 8.72382 160.771 8.7454H160.275V8.09797H160.771C160.836 8.09797 160.901 8.11955 160.944 8.14113C160.987 8.16271 161.03 8.20587 161.052 8.24903C161.073 8.27062 161.095 8.33536 161.095 8.4001ZM163.469 9.11227V8.81014C163.469 8.76698 163.469 8.7454 163.447 8.7454C163.447 8.72382 163.425 8.72381 163.382 8.72381H162.476C162.433 8.72381 162.39 8.72381 162.346 8.70223C162.303 8.68065 162.282 8.65907 162.282 8.63749C162.26 8.61591 162.26 8.57275 162.26 8.50801V8.11955H163.231C163.253 8.11955 163.274 8.11955 163.274 8.09797C163.274 8.07639 163.296 8.05481 163.296 8.03323V7.75268C163.296 7.7311 163.296 7.68793 163.274 7.68793C163.274 7.66635 163.253 7.66636 163.231 7.66636H162.26V7.40738C162.26 7.36422 162.26 7.32106 162.282 7.29948C162.303 7.2779 162.325 7.23474 162.346 7.21316C162.368 7.19158 162.433 7.19158 162.476 7.19158H163.339C163.361 7.19158 163.382 7.19158 163.382 7.16999C163.382 7.14841 163.404 7.14842 163.404 7.10526V6.80313C163.404 6.78154 163.404 6.73838 163.382 6.73838C163.382 6.7168 163.361 6.7168 163.339 6.7168H162.368C162.26 6.7168 162.152 6.73838 162.087 6.75996C162.001 6.80312 161.936 6.84629 161.893 6.91103C161.85 6.97577 161.807 7.04051 161.785 7.12684C161.764 7.21316 161.742 7.2779 161.742 7.36422V8.50801C161.742 8.59433 161.742 8.65907 161.764 8.7454C161.785 8.81014 161.807 8.89646 161.872 8.93962C161.915 9.00437 161.98 9.04752 162.066 9.09068C162.152 9.13385 162.26 9.15543 162.368 9.15543H163.382C163.404 9.15543 163.425 9.15543 163.447 9.13385C163.469 9.15543 163.469 9.13385 163.469 9.11227ZM167.353 7.88217C167.418 7.81742 167.483 7.75268 167.526 7.68793C167.569 7.62319 167.612 7.53687 167.634 7.42897L167.785 6.80313V6.78154C167.785 6.75996 167.785 6.75996 167.763 6.75996C167.763 6.75996 167.742 6.73838 167.72 6.73838H167.332C167.31 6.73838 167.31 6.73838 167.288 6.73838C167.267 6.73838 167.267 6.75996 167.267 6.78154L167.116 7.36422C167.094 7.42896 167.073 7.49371 167.051 7.53687C167.029 7.58003 166.986 7.60161 166.943 7.62319C166.9 7.64477 166.878 7.66636 166.835 7.66636C166.792 7.66636 166.771 7.66636 166.727 7.66636H166.468V6.78154C166.468 6.75996 166.468 6.73838 166.468 6.73838C166.468 6.73838 166.447 6.73838 166.425 6.73838H166.037C166.015 6.73838 165.994 6.73838 165.994 6.73838C165.994 6.73838 165.972 6.75996 165.972 6.78154V9.09068C165.972 9.11227 165.972 9.13385 165.994 9.13385C165.994 9.13385 166.015 9.13385 166.037 9.13385H166.425C166.447 9.13385 166.468 9.13385 166.468 9.13385C166.468 9.13385 166.49 9.11227 166.49 9.09068V8.05481H166.77C166.857 8.05481 166.922 8.05481 166.965 8.07639C167.029 8.09797 167.073 8.11955 167.094 8.16271C167.137 8.20587 167.159 8.27061 167.181 8.33536L167.396 9.09068C167.396 9.11227 167.418 9.13385 167.418 9.13385C167.44 9.13385 167.44 9.13385 167.461 9.13385H167.85C167.871 9.13385 167.871 9.13385 167.893 9.11227L167.914 9.09068C167.914 9.0691 167.914 9.06911 167.914 9.06911L167.698 8.27062C167.677 8.22746 167.677 8.16271 167.655 8.11955C167.634 8.07639 167.612 8.03323 167.591 8.01164C167.569 7.96848 167.526 7.9469 167.504 7.92532C167.461 7.9469 167.396 7.90375 167.353 7.88217ZM168.778 8.24903L168.907 7.81742L169.036 7.32106H169.058L169.188 7.81742L169.317 8.24903H168.778ZM169.425 8.68065L169.554 9.13385C169.554 9.15543 169.576 9.17701 169.598 9.17701C169.619 9.17701 169.641 9.17701 169.662 9.17701H170.072C170.094 9.17701 170.094 9.17701 170.116 9.15543L170.137 9.13385V9.11227L169.425 6.9326C169.403 6.86786 169.382 6.84629 169.36 6.80313C169.339 6.78154 169.317 6.75996 169.274 6.75996C169.231 6.75996 169.209 6.73838 169.144 6.73838H168.95C168.907 6.73838 168.864 6.73838 168.842 6.75996C168.821 6.75996 168.778 6.78154 168.756 6.8247C168.734 6.84628 168.713 6.88944 168.713 6.9326L168.001 9.11227C168.001 9.13385 168.001 9.15543 168.001 9.15543C168.001 9.17701 168.022 9.17701 168.044 9.17701H168.432C168.454 9.17701 168.475 9.17701 168.497 9.15543C168.519 9.15543 168.519 9.13385 168.519 9.11227L168.648 8.68065H169.425ZM171.561 7.55845C171.561 7.6232 171.54 7.66635 171.518 7.7311C171.497 7.77426 171.454 7.81742 171.41 7.839C171.367 7.86058 171.302 7.88217 171.216 7.88217H170.763V7.21316H171.195C171.259 7.21316 171.324 7.23474 171.367 7.25632C171.41 7.2779 171.454 7.29948 171.475 7.34265C171.497 7.38581 171.518 7.40739 171.518 7.45055C171.54 7.47213 171.561 7.51529 171.561 7.55845ZM170.763 9.11227V8.31378H171.216C171.346 8.31378 171.454 8.2922 171.54 8.27062C171.626 8.24904 171.713 8.20587 171.777 8.16271C171.842 8.11955 171.885 8.05481 171.928 8.01164C171.971 7.9469 171.993 7.90374 172.015 7.839C172.036 7.77426 172.058 7.7311 172.058 7.66636C172.058 7.6232 172.079 7.55845 172.079 7.51529C172.079 7.40738 172.058 7.29948 172.015 7.21316C171.971 7.12684 171.928 7.04051 171.864 6.97577C171.799 6.91103 171.712 6.84628 171.605 6.8247C171.497 6.78154 171.389 6.75996 171.281 6.75996H170.439C170.396 6.75996 170.353 6.75996 170.31 6.78154C170.288 6.80312 170.267 6.8247 170.245 6.84628C170.223 6.86786 170.223 6.91103 170.223 6.95419V9.09068C170.223 9.11227 170.223 9.13385 170.245 9.15543C170.267 9.17701 170.267 9.17701 170.31 9.17701H170.677C170.698 9.17701 170.72 9.17701 170.72 9.17701C170.741 9.17701 170.741 9.17701 170.741 9.15543C170.763 9.15543 170.763 9.13385 170.763 9.11227ZM174 7.12684V6.8247C174 6.80312 174 6.78154 173.978 6.75996C173.978 6.75996 173.957 6.73838 173.914 6.73838H172.166C172.144 6.73838 172.123 6.73838 172.123 6.75996C172.123 6.75996 172.101 6.78154 172.101 6.8247V7.12684C172.101 7.14842 172.101 7.16999 172.123 7.16999C172.123 7.19158 172.144 7.19158 172.166 7.19158H172.77V9.09068C172.77 9.11227 172.77 9.13385 172.792 9.15543C172.813 9.17701 172.813 9.17701 172.856 9.17701H173.223C173.266 9.17701 173.288 9.17701 173.288 9.15543C173.309 9.15543 173.309 9.13385 173.309 9.09068V7.19158H173.935C173.957 7.19158 173.978 7.19158 173.978 7.16999C173.978 7.16999 174 7.14842 174 7.12684ZM159.951 9.17701H160.814C160.922 9.17701 161.03 9.15543 161.138 9.11227C161.246 9.0691 161.332 9.02595 161.397 8.96121C161.462 8.89646 161.526 8.81014 161.57 8.72381C161.613 8.63749 161.634 8.52959 161.634 8.42168C161.634 8.37852 161.634 8.33536 161.634 8.2922C161.634 8.24904 161.613 8.18429 161.591 8.11955C161.57 8.05481 161.548 8.01165 161.505 7.9469C161.462 7.88216 161.418 7.839 161.354 7.79584C161.289 7.75268 161.203 7.70951 161.116 7.68793C161.03 7.66635 160.901 7.64478 160.771 7.64478H160.275V7.21316H161.311C161.332 7.21316 161.354 7.21316 161.354 7.19158C161.354 7.19158 161.375 7.16999 161.375 7.14841V6.84628C161.375 6.8247 161.375 6.80312 161.354 6.78154C161.354 6.75996 161.332 6.75996 161.311 6.75996H159.994C159.951 6.75996 159.908 6.75996 159.865 6.78154C159.843 6.80312 159.8 6.8247 159.8 6.86787C159.778 6.91103 159.778 6.95419 159.778 6.99735V8.98278C159.778 9.02594 159.778 9.0691 159.8 9.11227C159.821 9.13385 159.821 9.15543 159.865 9.17701C159.865 9.17701 159.908 9.17701 159.951 9.17701ZM163.987 6.99735L163.965 7.51529C163.965 7.68794 163.943 7.86058 163.922 7.99007C163.9 8.20588 163.879 8.7454 163.598 8.7454C163.577 8.7454 163.555 8.74539 163.533 8.76697C163.533 8.78855 163.512 8.81014 163.512 8.83172V9.13385C163.512 9.15543 163.512 9.17701 163.533 9.19859C163.533 9.22017 163.555 9.22017 163.598 9.22017C163.814 9.22017 164.008 9.19859 164.159 8.96121C164.202 8.87488 164.246 8.78856 164.289 8.70223C164.31 8.59433 164.353 8.48642 164.353 8.37852C164.375 8.24904 164.397 8.11955 164.397 7.99007C164.418 7.839 164.418 7.68794 164.44 7.51529L164.461 7.2779H165.13V9.17701C165.13 9.19859 165.13 9.22017 165.152 9.22017C165.152 9.22017 165.174 9.24175 165.195 9.24175H165.562C165.584 9.24175 165.605 9.24175 165.605 9.24175C165.627 9.24175 165.627 9.24175 165.627 9.22017C165.627 9.22017 165.627 9.19859 165.627 9.17701V7.04051C165.627 6.99735 165.627 6.95419 165.605 6.91103C165.584 6.86787 165.562 6.84628 165.54 6.8247C165.519 6.80312 165.476 6.80313 165.411 6.80313H164.181C164.138 6.80313 164.094 6.80312 164.051 6.8247C164.03 6.84628 164.008 6.86787 163.987 6.91103C164.008 6.88945 164.008 6.93261 163.987 6.99735Z" fill="#1B4D88"/>
</g>
<g clip-path="url(#clip3_210_767)">
<path d="M114 2C114 0.895431 114.895 0 116 0H136C137.105 0 138 0.895431 138 2V14C138 15.1046 137.105 16 136 16H116C114.895 16 114 15.1046 114 14V2Z" fill="#DCEFDC"/>
<path d="M133.944 5.10254H130.093C130.318 6.37357 131.551 7.56983 132.897 7.56983H135.962C136 7.45768 136 7.27076 136 7.15861C136 6.03712 135.065 5.10254 133.944 5.10254Z" fill="url(#paint8_linear_210_767)"/>
<path d="M130.43 7.79395V10.8967H132.299V9.25189H133.944C134.841 9.25189 135.626 8.61638 135.888 7.79395H130.43Z" fill="#4FAD50"/>
<path d="M123.851 5.10254V10.8596H125.495C125.495 10.8596 125.907 10.8595 126.131 10.4483C127.252 8.24273 127.589 7.56983 127.589 7.56983H127.813V10.8596H129.682V5.10254H128.038C128.038 5.10254 127.626 5.13992 127.402 5.51376C126.467 7.4203 125.944 8.39226 125.944 8.39226H125.72V5.10254H123.851Z" fill="#4FAD50"/>
<path d="M116 10.8967V5.13965H117.869C117.869 5.13965 118.393 5.13965 118.692 5.96208C119.439 8.1303 119.514 8.42937 119.514 8.42937C119.514 8.42937 119.664 7.906 120.336 5.96208C120.636 5.13965 121.159 5.13965 121.159 5.13965H123.028V10.8967H121.159V7.79386H120.935L119.888 10.8967H119.065L118.019 7.79386H117.794V10.8967H116Z" fill="#4FAD50"/>
</g>
<g clip-path="url(#clip4_210_767)">
<path d="M76 2C76 0.895431 76.8954 0 78 0H98C99.1046 0 100 0.895431 100 2V14C100 15.1046 99.1046 16 98 16H78C76.8954 16 76 15.1046 76 14V2Z" fill="#FAD1D7"/>
<path d="M82.1654 2.00098H86.9533C87.6217 2.00098 88.0374 2.54574 87.8815 3.21632L85.6523 12.7869C85.495 13.4551 84.8258 14.0003 84.157 14.0003H79.3695C78.7021 14.0003 78.2855 13.4551 78.4414 12.7869L80.6715 3.21632C80.8274 2.54574 81.4962 2.00098 82.1654 2.00098Z" fill="#E21836"/>
<path d="M86.5547 2H92.0608C92.729 2 92.4277 2.54477 92.2705 3.21534L90.0417 12.7859C89.8853 13.4541 89.9341 13.9994 89.2644 13.9994H83.7584C83.0888 13.9994 82.6744 13.4541 82.8317 12.7859L85.0603 3.21534C85.2186 2.54477 85.886 2 86.5547 2Z" fill="#00447C"/>
<path d="M91.8421 2H96.6301C97.2993 2 97.715 2.54477 97.5578 3.21534L95.3291 12.7859C95.1717 13.4541 94.5021 13.9994 93.8329 13.9994H89.0472C88.3775 13.9994 87.9622 13.4541 88.1191 12.7859L90.3482 3.21534C90.5041 2.54477 91.1725 2 91.8421 2Z" fill="#007B84"/>
<path d="M83.4153 5.0667C82.923 5.07172 82.7776 5.0667 82.7311 5.05573C82.7133 5.14058 82.381 6.67323 82.3801 6.67451C82.3085 6.98459 82.2565 7.20563 82.0797 7.34835C81.9793 7.43133 81.8621 7.47136 81.7263 7.47136C81.508 7.47136 81.3807 7.36294 81.3594 7.15731L81.3553 7.08671C81.3553 7.08671 81.4218 6.67136 81.4218 6.66903C81.4218 6.66903 81.7705 5.27233 81.833 5.08771C81.8362 5.07721 81.8372 5.07172 81.838 5.0667C81.1592 5.07265 81.0389 5.0667 81.0306 5.05573C81.0261 5.07079 81.0093 5.15738 81.0093 5.15738L80.6532 6.73158L80.6226 6.86509L80.5635 7.30179C80.5635 7.43133 80.5889 7.53706 80.6396 7.62646C80.8018 7.90993 81.2645 7.95241 81.5263 7.95241C81.8635 7.95241 82.1799 7.88075 82.3937 7.74993C82.7648 7.53064 82.8619 7.18789 82.9485 6.88329L82.9887 6.72703C82.9887 6.72703 83.3479 5.27642 83.4089 5.08771C83.4113 5.07721 83.4122 5.07172 83.4153 5.0667ZM84.6375 6.23693C84.5509 6.23693 84.3927 6.25793 84.2505 6.3276C84.199 6.3541 84.1502 6.38467 84.0987 6.41513L84.1452 6.24743L84.1197 6.21919C83.8183 6.28022 83.7508 6.28839 83.4724 6.3276L83.449 6.34313C83.4167 6.61119 83.388 6.81274 83.2681 7.33965C83.2225 7.53384 83.1751 7.7299 83.1276 7.92363L83.1405 7.94825C83.4258 7.9332 83.5124 7.9332 83.7604 7.93728L83.7805 7.91546C83.812 7.75406 83.8161 7.71625 83.8858 7.38936C83.9186 7.23438 83.987 6.89384 84.0208 6.77259C84.0827 6.74388 84.1439 6.71564 84.2022 6.71564C84.3412 6.71564 84.3243 6.83689 84.3189 6.88521C84.313 6.96632 84.2623 7.23123 84.2104 7.45868L84.1757 7.6055C84.1516 7.71391 84.1251 7.8193 84.1009 7.92678L84.1114 7.94825C84.3927 7.9332 84.4785 7.9332 84.7186 7.93728L84.7469 7.91546C84.7903 7.66338 84.803 7.59593 84.88 7.2289L84.9188 7.06026C84.9941 6.73023 85.0319 6.56288 84.9749 6.42657C84.9147 6.2738 84.7702 6.23693 84.6375 6.23693ZM86.0029 6.58247C85.8534 6.61118 85.758 6.63032 85.6632 6.64269C85.5693 6.65774 85.4777 6.6714 85.3332 6.69147L85.3218 6.70186L85.3113 6.71014C85.2962 6.81774 85.2857 6.91076 85.2658 7.02011C85.2488 7.13319 85.2228 7.26168 85.1805 7.4463C85.1477 7.58763 85.1307 7.63688 85.1121 7.68659C85.0939 7.73631 85.0738 7.78462 85.0369 7.92362L85.0455 7.93645L85.0528 7.94824C85.1878 7.94182 85.2761 7.93727 85.3669 7.93645C85.4576 7.93319 85.5516 7.93645 85.697 7.93727L85.7097 7.92688L85.7234 7.91545C85.7444 7.79011 85.7475 7.75638 85.7603 7.69523C85.7731 7.62964 85.795 7.53885 85.8488 7.29634C85.8742 7.18244 85.9026 7.06889 85.929 6.95265C85.9564 6.83688 85.9851 6.72286 86.0124 6.60896L86.0083 6.59519L86.0029 6.58247ZM86.006 6.11657C85.8702 6.0364 85.6318 6.06184 85.4713 6.17259C85.3113 6.28112 85.2931 6.43517 85.4285 6.51639C85.562 6.59435 85.8013 6.57113 85.9604 6.45944C86.1201 6.34858 86.14 6.19593 86.006 6.11657ZM86.8276 7.97337C87.1024 7.97337 87.3841 7.89763 87.5962 7.67286C87.7593 7.49057 87.8341 7.21935 87.86 7.10767C87.9444 6.73749 87.8787 6.56465 87.7962 6.45938C87.6709 6.29892 87.4494 6.24745 87.2196 6.24745C87.0814 6.24745 86.7523 6.26111 86.4952 6.49813C86.3106 6.6691 86.2253 6.9011 86.1738 7.12354C86.1219 7.35017 86.0621 7.75817 86.4373 7.91C86.5531 7.95971 86.72 7.97337 86.8276 7.97337ZM86.8061 7.14046C86.8695 6.86014 86.9443 6.62487 87.1352 6.62487C87.2848 6.62487 87.2957 6.79992 87.2291 7.08118C87.2172 7.14361 87.1626 7.37573 87.0887 7.47458C87.0372 7.54752 86.9761 7.59175 86.9087 7.59175C86.8886 7.59175 86.7692 7.59175 86.7673 7.41448C86.7664 7.32695 86.7843 7.23756 86.8061 7.14046ZM88.5471 7.93732L88.5685 7.91549C88.599 7.75409 88.604 7.71617 88.6715 7.3894C88.7052 7.23442 88.775 6.89388 88.8078 6.77263C88.8699 6.7438 88.93 6.71556 88.9902 6.71556C89.1282 6.71556 89.1114 6.83681 89.106 6.88513C89.1009 6.96635 89.0503 7.23115 88.9974 7.4586L88.9646 7.60541C88.9395 7.71395 88.9122 7.81921 88.8881 7.92681L88.8986 7.94829C89.1808 7.93323 89.2633 7.93323 89.5048 7.93732L89.534 7.91549C89.5764 7.6633 89.5878 7.59585 89.6672 7.22893L89.705 7.06018C89.7806 6.73015 89.8189 6.56291 89.7629 6.4266C89.7009 6.27384 89.5555 6.23696 89.4247 6.23696C89.338 6.23696 89.1789 6.25785 89.0376 6.32764C88.987 6.35413 88.9364 6.38459 88.8867 6.41517L88.93 6.24746L88.9067 6.21911C88.6054 6.28026 88.5366 6.28843 88.2585 6.32764L88.2371 6.34316C88.2034 6.61123 88.1759 6.81265 88.0561 7.33968C88.0105 7.53388 87.9631 7.72994 87.9157 7.92366L87.9284 7.94829C88.2142 7.93323 88.2995 7.93323 88.5471 7.93732ZM90.6203 7.94823C90.6381 7.86164 90.7435 7.34838 90.7444 7.34838C90.7444 7.34838 90.8341 6.97178 90.8396 6.95812C90.8396 6.95812 90.8679 6.91891 90.8961 6.90339H90.9377C91.3297 6.90339 91.7723 6.90339 92.1193 6.64816C92.3554 6.47311 92.5168 6.21461 92.5888 5.90045C92.6074 5.82343 92.6212 5.73181 92.6212 5.6402C92.6212 5.51988 92.597 5.40085 92.5273 5.30783C92.3503 5.06031 91.998 5.05576 91.5913 5.05389C91.59 5.05389 91.3908 5.05576 91.3908 5.05576C90.8702 5.06218 90.6614 5.06031 90.5756 5.0498C90.5684 5.08773 90.5548 5.15519 90.5548 5.15519C90.5548 5.15519 90.3683 6.01949 90.3683 6.02089C90.3683 6.02089 89.922 7.85848 89.901 7.94508C90.3555 7.93959 90.5419 7.93959 90.6203 7.94823ZM90.9659 6.41289C90.9659 6.41289 91.1642 5.55034 91.1632 5.55361L91.1697 5.50938L91.1725 5.47565L91.2517 5.48382C91.2517 5.48382 91.6606 5.51895 91.6702 5.51988C91.8316 5.58232 91.8981 5.74325 91.8517 5.95332C91.8093 6.14529 91.6848 6.30669 91.5248 6.38465C91.393 6.4507 91.2316 6.45619 91.0653 6.45619H90.9577L90.9659 6.41289ZM92.2004 7.15644C92.148 7.37981 92.0878 7.7878 92.4611 7.93321C92.5802 7.98386 92.6868 7.99891 92.7953 7.99343C92.9097 7.98724 93.0158 7.92982 93.1141 7.8472C93.1052 7.88116 93.0963 7.91512 93.0875 7.9492L93.1044 7.97102C93.3729 7.9597 93.4563 7.9597 93.7472 7.96192L93.7736 7.94184C93.8161 7.6921 93.8561 7.44959 93.9665 6.97181C94.0203 6.74296 94.074 6.51632 94.1292 6.2884L94.1205 6.26331C93.8201 6.31898 93.7398 6.33088 93.4509 6.37185L93.429 6.3897C93.426 6.41293 93.423 6.43522 93.4202 6.45751C93.3753 6.38492 93.3101 6.32295 93.2097 6.28432C93.0812 6.23379 92.7794 6.29891 92.52 6.53511C92.3377 6.70375 92.2501 6.93482 92.2004 7.15644ZM92.8313 7.17009C92.8956 6.89479 92.9695 6.66185 93.1609 6.66185C93.2819 6.66185 93.3456 6.77354 93.3327 6.96399C93.3224 7.01149 93.3113 7.06156 93.2981 7.11816C93.279 7.19997 93.2582 7.28108 93.238 7.3623C93.2175 7.41785 93.1936 7.47025 93.1673 7.50514C93.1181 7.57493 93.0009 7.61823 92.9334 7.61823C92.9143 7.61823 92.7962 7.61823 92.7921 7.44411C92.7912 7.3574 92.809 7.26812 92.8313 7.17009ZM96.1259 6.26108L96.1027 6.23459C95.8054 6.29481 95.7516 6.30438 95.4785 6.34126L95.4585 6.36133C95.4575 6.3646 95.4567 6.36962 95.4553 6.37417L95.4544 6.36962C95.2511 6.83864 95.257 6.73746 95.0916 7.10671C95.0906 7.08991 95.0906 7.0794 95.0897 7.06155L95.0483 6.26108L95.0222 6.23459C94.7109 6.29481 94.7035 6.30438 94.416 6.34126L94.3936 6.36133C94.3904 6.3709 94.3904 6.3814 94.3885 6.39284L94.3904 6.39693C94.4263 6.58062 94.4177 6.53965 94.4538 6.82954C94.4706 6.9718 94.493 7.11488 94.5098 7.25539C94.5382 7.49054 94.554 7.60631 94.5887 7.96517C94.3945 8.28564 94.3485 8.40689 94.1616 8.68815L94.1628 8.69095L94.0312 8.89914C94.0161 8.92108 94.0025 8.93614 93.9833 8.94256C93.9623 8.95294 93.935 8.95481 93.8971 8.95481H93.8242L93.7157 9.31542L94.0877 9.32184C94.306 9.32091 94.4433 9.21879 94.5171 9.08155L94.751 8.68079H94.7473L94.7719 8.65255C94.9292 8.31388 96.1259 6.26108 96.1259 6.26108ZM92.2004 10.9972H92.0426L92.6266 9.06562H92.8203L92.8818 8.86664L92.8878 9.08791C92.8806 9.22469 92.9882 9.34594 93.2708 9.32587H93.5977L93.7102 8.95394H93.5872C93.5165 8.95394 93.4837 8.93608 93.4878 8.8978L93.4818 8.67268H92.8765V8.67385C92.6808 8.67793 92.0963 8.69264 91.978 8.72415C91.8348 8.76103 91.6839 8.86956 91.6839 8.86956L91.7432 8.67035H91.1769L91.0589 9.06562L90.4671 11.0267H90.3523L90.2397 11.3959H91.3675L91.3297 11.5191H91.8854L91.9223 11.3959H92.0782L92.2004 10.9972ZM91.7377 9.45809C91.647 9.48318 91.4783 9.55927 91.4783 9.55927L91.6283 9.06562H92.0782L91.9697 9.4253C91.9697 9.4253 91.8307 9.43347 91.7377 9.45809ZM91.7463 10.1633C91.7463 10.1633 91.605 10.1811 91.512 10.2021C91.4204 10.2298 91.2486 10.3174 91.2486 10.3174L91.4036 9.80365H91.8558L91.7463 10.1633ZM91.4942 11.0017H91.043L91.1738 10.5682H91.6237L91.4942 11.0017ZM92.581 9.80365H93.2315L93.1381 10.1064H92.4789L92.38 10.4373H92.9567L92.52 11.0522C92.4894 11.0974 92.462 11.1134 92.4316 11.1261C92.401 11.1416 92.3608 11.1598 92.3144 11.1598H92.1544L92.0444 11.5223H92.4629C92.6805 11.5223 92.809 11.4234 92.9038 11.2935L93.2033 10.8836L93.2676 11.2998C93.2813 11.3777 93.3373 11.4234 93.3752 11.4411C93.4171 11.4621 93.4604 11.4982 93.5216 11.5035C93.5871 11.5063 93.6345 11.5086 93.666 11.5086H93.8717L93.9951 11.1029H93.914C93.8675 11.1029 93.7873 11.0951 93.7736 11.0805C93.76 11.0628 93.76 11.0354 93.7526 10.9939L93.6874 10.5768H93.4203L93.5374 10.4373H94.1953L94.2965 10.1064H93.6874L93.7823 9.80365H94.3895L94.5021 9.43032H92.6918L92.581 9.80365ZM87.0869 11.086L87.2387 10.5809H87.8627L87.9768 10.2053H87.3522L87.4475 9.89436H88.0579L88.171 9.5306H86.6438L86.533 9.89436H86.88L86.7874 10.2053H86.4396L86.3243 10.5873H86.6711L86.4687 11.2556C86.4414 11.344 86.4816 11.3778 86.507 11.4188C86.533 11.4589 86.5594 11.4854 86.6187 11.5004C86.6798 11.5141 86.7217 11.5222 86.7787 11.5222H87.4822L87.6075 11.1061L87.2957 11.1489C87.2355 11.1489 87.0687 11.1417 87.0869 11.086ZM87.1585 8.66807L87.0003 8.95388C86.9665 9.01631 86.936 9.05506 86.9086 9.07291C86.8845 9.08797 86.8366 9.09427 86.7673 9.09427H86.6848L86.5745 9.4599H86.8485C86.9803 9.4599 87.0815 9.41158 87.1298 9.38743C87.1817 9.35965 87.1954 9.37552 87.2355 9.33678L87.328 9.2566H88.1837L88.2973 8.87592H87.6709L87.7803 8.66807H87.1585ZM88.4217 11.0934C88.4071 11.0723 88.4176 11.0353 88.4399 10.9583L88.6738 10.1842H89.5058C89.627 10.1825 89.7145 10.1811 89.7715 10.177C89.8326 10.1706 89.8992 10.1488 89.9716 10.1095C90.0464 10.0685 90.0847 10.0252 90.1171 9.97546C90.1531 9.92586 90.211 9.81733 90.2607 9.64997L90.5547 8.67037L89.6913 8.67539C89.6913 8.67539 89.4255 8.7146 89.3084 8.7579C89.1903 8.80621 89.0216 8.94112 89.0216 8.94112L89.0995 8.67259H88.5662L87.8195 11.1489C87.793 11.2451 87.7753 11.3149 87.7712 11.3567C87.7698 11.4019 87.8282 11.4466 87.866 11.4803C87.9107 11.5141 87.9767 11.5086 88.0401 11.5141C88.1067 11.5191 88.2015 11.5222 88.3323 11.5222H88.7422L88.868 11.0974L88.5011 11.1321C88.4619 11.1321 88.4335 11.1111 88.4217 11.0934ZM88.8247 9.66141H89.6986L89.643 9.83553C89.6352 9.83961 89.6165 9.82689 89.5276 9.8374H88.7709L88.8247 9.66141ZM88.9997 9.07743H89.881L89.8176 9.28715C89.8176 9.28715 89.4022 9.28306 89.3357 9.29531C89.043 9.34596 88.8721 9.50234 88.8721 9.50234L88.9997 9.07743ZM89.6626 10.4186C89.6553 10.4446 89.6439 10.4605 89.6279 10.4724C89.6102 10.4838 89.5815 10.4879 89.5386 10.4879H89.4141L89.4215 10.2759H88.9035L88.8825 11.3126C88.8817 11.3874 88.8889 11.4307 88.9437 11.4653C88.9984 11.5086 89.167 11.5141 89.394 11.5141H89.7186L89.8357 11.1261L89.5532 11.1416L89.4593 11.1471C89.4464 11.1416 89.4342 11.1366 89.4205 11.1229C89.4086 11.1111 89.3885 11.1184 89.3918 11.0436L89.394 10.7778L89.6903 10.7656C89.8503 10.7656 89.9187 10.7135 89.9771 10.6639C90.0327 10.6164 90.051 10.5618 90.072 10.4879L90.1217 10.2527H89.7145L89.6626 10.4186Z" fill="#FEFEFE"/>
</g>
<g clip-path="url(#clip5_210_767)">
<path d="M38 2C38 0.895431 38.8954 0 40 0H60C61.1046 0 62 0.895431 62 2V14C62 15.1046 61.1046 16 60 16H40C38.8954 16 38 15.1046 38 14V2Z" fill="#FDEACE"/>
<path d="M52.5044 3.26349L47.3398 3.28125L47.4963 12.7362L52.6609 12.7184L52.5044 3.26349Z" fill="#FF5F00"/>
<path d="M47.6798 8.02808C47.6478 6.10503 48.5093 4.39632 49.8586 3.28797C48.8401 2.48875 47.5633 2.00815 46.1791 2.01289C42.9 2.02412 40.2918 4.72548 40.3471 8.0532C40.4024 11.3809 43.1001 14.0641 46.3792 14.0529C47.7634 14.0481 49.0241 13.5588 50.0159 12.7527C48.6302 11.6705 47.7118 9.95114 47.6798 8.02808Z" fill="#EB001B"/>
<path d="M59.6536 7.94711C59.7089 11.2748 57.1007 13.9762 53.8216 13.9874C52.4374 13.9922 51.1606 13.5116 50.1421 12.7123C51.5079 11.6039 52.3529 9.89528 52.3209 7.97222C52.2889 6.04917 51.3708 4.34655 49.9848 3.24757C50.9766 2.44146 52.2373 1.95217 53.6215 1.94743C56.9006 1.9362 59.5986 4.63611 59.6536 7.94711Z" fill="#F79E1B"/>
</g>
<g clip-path="url(#clip6_210_767)">
<path d="M0 2C0 0.895431 0.895431 0 2 0H22C23.1046 0 24 0.895431 24 2V14C24 15.1046 23.1046 16 22 16H2C0.89543 16 0 15.1046 0 14V2Z" fill="#D8E3F3"/>
<path d="M20.6548 5.01758H19.3975C19.0174 5.01758 18.725 5.13454 18.5495 5.51465L16.1519 10.9825H17.8478C17.8478 10.9825 18.1402 10.2515 18.1986 10.0761C18.3741 10.0761 20.0407 10.0761 20.2747 10.0761C20.3331 10.2807 20.4793 10.9533 20.4793 10.9533H21.9998L20.6548 5.01758ZM18.6665 8.84799C18.8127 8.49711 19.3097 7.18132 19.3097 7.18132C19.3097 7.21056 19.4559 6.83044 19.5144 6.62577L19.6314 7.15208C19.6314 7.15208 19.953 8.58483 20.0115 8.87723H18.6665V8.84799Z" fill="#3362AB"/>
<path d="M16.2692 9.02325C16.2692 10.2513 15.1581 11.07 13.433 11.07C12.702 11.07 12.0002 10.9238 11.6201 10.7484L11.854 9.40337L12.0587 9.49109C12.585 9.72501 12.9359 9.81273 13.5792 9.81273C14.047 9.81273 14.5441 9.63729 14.5441 9.22793C14.5441 8.96478 14.3394 8.78934 13.6961 8.49694C13.0821 8.20454 12.2634 7.73671 12.2634 6.88875C12.2634 5.71916 13.4037 4.92969 15.0119 4.92969C15.626 4.92969 16.1523 5.04665 16.4739 5.19285L16.24 6.4794L16.123 6.36244C15.8306 6.24548 15.4505 6.12852 14.895 6.12852C14.2809 6.15776 13.9885 6.42092 13.9885 6.65483C13.9885 6.91799 14.3394 7.12267 14.895 7.38583C15.8306 7.82442 16.2692 8.3215 16.2692 9.02325Z" fill="#3362AB"/>
<path d="M2 5.07594L2.02924 4.95898H4.54386C4.89474 4.95898 5.15789 5.07594 5.24561 5.45606L5.80117 8.08764C5.24561 6.68413 3.95906 5.54378 2 5.07594Z" fill="#F9B50B"/>
<path d="M9.33939 5.01752L6.79553 10.9532H5.07039L3.6084 5.98243C4.66103 6.65495 5.53822 7.70758 5.85986 8.43857L6.0353 9.05261L7.61425 4.98828H9.33939V5.01752Z" fill="#3362AB"/>
<path d="M10.0117 4.98828H11.6199L10.5965 10.9532H8.98828L10.0117 4.98828Z" fill="#3362AB"/>
</g>
<defs>
<linearGradient id="paint0_linear_210_767" x1="156.955" y1="8.04431" x2="158.752" y2="8.29694" gradientUnits="userSpaceOnUse">
<stop stop-color="#A2D9F7"/>
<stop offset="0.5" stop-color="#1B9DD9"/>
<stop offset="1" stop-color="#055795"/>
</linearGradient>
<linearGradient id="paint1_linear_210_767" x1="156.763" y1="8.44826" x2="157.836" y2="9.92441" gradientUnits="userSpaceOnUse">
<stop stop-color="#A2D9F7"/>
<stop offset="0.5" stop-color="#1B9DD9"/>
<stop offset="1" stop-color="#055795"/>
</linearGradient>
<linearGradient id="paint2_linear_210_767" x1="156.338" y1="8.59889" x2="156.082" y2="10.4135" gradientUnits="userSpaceOnUse">
<stop stop-color="#A2D9F7"/>
<stop offset="0.5" stop-color="#1B9DD9"/>
<stop offset="1" stop-color="#055795"/>
</linearGradient>
<linearGradient id="paint3_linear_210_767" x1="155.968" y1="8.41705" x2="154.494" y2="9.44948" gradientUnits="userSpaceOnUse">
<stop stop-color="#A2D9F7"/>
<stop offset="0.5" stop-color="#1B9DD9"/>
<stop offset="1" stop-color="#055795"/>
</linearGradient>
<linearGradient id="paint4_linear_210_767" x1="155.967" y1="7.5554" x2="154.92" y2="6.05957" gradientUnits="userSpaceOnUse">
<stop stop-color="#A2D9F7"/>
<stop offset="0.5" stop-color="#1B9DD9"/>
<stop offset="1" stop-color="#055795"/>
</linearGradient>
<linearGradient id="paint5_linear_210_767" x1="156.393" y1="7.39545" x2="156.68" y2="5.58381" gradientUnits="userSpaceOnUse">
<stop stop-color="#A2D9F7"/>
<stop offset="0.5" stop-color="#1B9DD9"/>
<stop offset="1" stop-color="#055795"/>
</linearGradient>
<linearGradient id="paint6_linear_210_767" x1="156.802" y1="7.58176" x2="158.267" y2="6.51735" gradientUnits="userSpaceOnUse">
<stop stop-color="#A2D9F7"/>
<stop offset="0.5" stop-color="#1B9DD9"/>
<stop offset="1" stop-color="#055795"/>
</linearGradient>
<linearGradient id="paint7_linear_210_767" x1="155.788" y1="7.9679" x2="153.993" y2="7.68372" gradientUnits="userSpaceOnUse">
<stop stop-color="#A2D9F7"/>
<stop offset="0.5" stop-color="#1B9DD9"/>
<stop offset="1" stop-color="#055795"/>
</linearGradient>
<linearGradient id="paint8_linear_210_767" x1="130.087" y1="6.35387" x2="135.987" y2="6.35387" gradientUnits="userSpaceOnUse">
<stop stop-color="#27B1E6"/>
<stop offset="1" stop-color="#148ACA"/>
</linearGradient>
<clipPath id="clip0_210_767">
<rect width="24" height="16" fill="white" transform="translate(228)"/>
</clipPath>
<clipPath id="clip1_210_767">
<rect width="24" height="16" fill="white" transform="translate(190)"/>
</clipPath>
<clipPath id="clip2_210_767">
<rect width="24" height="16" fill="white" transform="translate(152)"/>
</clipPath>
<clipPath id="clip3_210_767">
<rect width="24" height="16" fill="white" transform="translate(114)"/>
</clipPath>
<clipPath id="clip4_210_767">
<rect width="24" height="16" fill="white" transform="translate(76)"/>
</clipPath>
<clipPath id="clip5_210_767">
<rect width="24" height="16" fill="white" transform="translate(38)"/>
</clipPath>
<clipPath id="clip6_210_767">
<rect width="24" height="16" fill="white"/>
</clipPath>
</defs>
</svg>
