<svg width="40" height="40" viewBox="0 0 40 40" fill="none" xmlns="http://www.w3.org/2000/svg">
<rect width="40" height="40" rx="10" fill="#6D61FF"/>
<path fill-rule="evenodd" clip-rule="evenodd" d="M9.27322 10.7481C8 12.5005 8 15.0004 8 20C8 24.9996 8 27.4995 9.27322 29.2519C9.68442 29.8179 10.1821 30.3156 10.7481 30.7268C12.5005 32 15.0004 32 20 32C24.9996 32 27.4995 32 29.2519 30.7268C29.8179 30.3156 30.3156 29.8179 30.7268 29.2519C32 27.4995 32 24.9996 32 20C32 15.0004 32 12.5005 30.7268 10.7481C30.3156 10.1821 29.8179 9.68442 29.2519 9.27322C27.4995 8 24.9996 8 20 8C15.0004 8 12.5005 8 10.7481 9.27322C10.1821 9.68442 9.68442 10.1821 9.27322 10.7481ZM27.4117 16.667C27.7801 16.2556 27.7452 15.6234 27.3337 15.255C26.9222 14.8866 26.29 14.9215 25.9216 15.333L21.4294 20.3505C20.5191 21.3673 19.9061 22.0484 19.382 22.4889C18.8828 22.9085 18.5895 23 18.3333 23C18.0772 23 17.7839 22.9085 17.2846 22.4889C16.7605 22.0484 16.1475 21.3673 15.2373 20.3505L14.0784 19.0561C13.71 18.6447 13.0778 18.6097 12.6663 18.9781C12.2548 19.3465 12.2199 19.9787 12.5883 20.3902L13.7967 21.7399C14.6445 22.6869 15.3517 23.4768 15.9978 24.0199C16.6813 24.5944 17.4186 25 18.3333 25C19.2481 25 19.9853 24.5944 20.6689 24.0199C21.315 23.4768 22.0222 22.6869 22.87 21.7399L27.4117 16.667Z" fill="white"/>
</svg>
