<svg width="40" height="40" viewBox="0 0 40 40" fill="none" xmlns="http://www.w3.org/2000/svg">
<rect width="40" height="40" rx="10" fill="#6D61FF"/>
<path d="M24.4266 11.3148C23.0333 6.89506 16.9667 6.89506 15.5734 11.3148C15.1638 12.6143 13.9889 13.4941 12.6633 13.4941C8.15449 13.4941 6.27983 19.4409 9.92752 22.1724C11 22.9755 11.4487 24.3991 11.0391 25.6986C9.64581 30.1183 14.5537 33.7936 18.2014 31.0621C19.2739 30.2589 20.7261 30.2589 21.7986 31.0621C25.4463 33.7936 30.3542 30.1183 28.9609 25.6986C28.5513 24.3991 29 22.9755 30.0725 22.1724C33.7202 19.4409 31.8455 13.4941 27.3367 13.4941C26.0111 13.4941 24.8362 12.6143 24.4266 11.3148Z" fill="#FAFAFA"/>
</svg>
