<svg width="40" height="40" viewBox="0 0 40 40" fill="none" xmlns="http://www.w3.org/2000/svg">
<rect width="40" height="40" rx="10" fill="#6D61FF"/>
<path fill-rule="evenodd" clip-rule="evenodd" d="M32 20C32 15.0004 32 12.5005 30.7268 10.7481C30.3156 10.1821 29.8179 9.68442 29.2519 9.27322C27.4995 8 24.9996 8 20 8C18.8814 8 17.888 8 17 8.01426L17 8.10776C17.0001 9.24378 17.0001 9.93576 16.9056 10.5327C16.386 13.8132 13.8132 16.386 10.5327 16.9056C9.93576 17.0002 9.24378 17.0001 8.10776 17L8.01426 17C8 17.888 8 18.8814 8 20C8 24.9996 8 27.4995 9.27322 29.2519C9.68441 29.8179 10.1821 30.3156 10.7481 30.7268C12.5005 32 15.0004 32 20 32C24.9996 32 27.4995 32 29.2519 30.7268C29.8179 30.3156 30.3156 29.8179 30.7268 29.2519C32 27.4995 32 24.9996 32 20ZM20.3333 17.3333C20.3333 16.781 20.781 16.3333 21.3333 16.3333C21.8856 16.3333 22.3333 16.781 22.3333 17.3333L22.3333 20.3333H25.3333C25.8856 20.3333 26.3333 20.781 26.3333 21.3333C26.3333 21.8856 25.8856 22.3333 25.3333 22.3333H22.3333V25.3333C22.3333 25.8856 21.8856 26.3333 21.3333 26.3333C20.781 26.3333 20.3333 25.8856 20.3333 25.3333V22.3333H17.3333C16.781 22.3333 16.3333 21.8856 16.3333 21.3333C16.3333 20.781 16.781 20.3333 17.3333 20.3333H20.3333V17.3333Z" fill="white"/>
<path d="M14.9302 10.2198C14.9954 9.80861 14.9998 9.3009 15 8.08712C13.0805 8.21299 11.7838 8.52076 10.7481 9.27322C10.1821 9.68442 9.68441 10.1821 9.27322 10.7481C8.52075 11.7838 8.21299 13.0805 8.08711 15C9.3009 14.9998 9.80861 14.9954 10.2198 14.9302C12.6445 14.5462 14.5462 12.6445 14.9302 10.2198Z" fill="white"/>
</svg>
