<svg width="24" height="24" viewBox="0 0 24 24" fill="none" xmlns="http://www.w3.org/2000/svg">
<path d="M12 2C9.30169 2 7.11429 4.04978 7.11429 6.57831V6.81928H3.77143C3.34538 6.81928 3 7.14293 3 7.54217C3 7.94141 3.34538 8.26506 3.77143 8.26506H20.2286C20.6546 8.26506 21 7.94141 21 7.54217C21 7.14293 20.6546 6.81928 20.2286 6.81928H16.8857V6.57831C16.8857 4.04978 14.6983 2 12 2Z" fill="#3D3787"/>
<path d="M18.7034 13.1128L18.4336 14.9297C18.1403 16.9043 17.9937 17.8917 17.6828 18.6847C17.1014 20.1675 16.0964 21.272 14.8968 21.7463C14.2554 22 13.5036 22 12 22C10.4964 22 9.74464 22 9.10318 21.7463C7.90364 21.272 6.89863 20.1675 6.31723 18.6847C6.00632 17.8917 5.85969 16.9043 5.56643 14.9297L5.2966 13.1128C5.21355 12.5536 5.1377 12.0428 5.07022 11.5739C4.93158 10.6105 4.86226 10.1288 5.16963 9.79936C5.477 9.46988 6.00529 9.46988 7.06186 9.46988H16.9381C17.9947 9.46988 18.523 9.46988 18.8304 9.79936C19.1377 10.1288 19.0684 10.6105 18.9298 11.5739C18.8623 12.0427 18.7864 12.5537 18.7034 13.1128Z" fill="#3D3787"/>
</svg>
