<svg width="24" height="24" viewBox="0 0 24 24" fill="none" xmlns="http://www.w3.org/2000/svg">
<path d="M13.4102 19.501C12.996 19.501 12.6602 19.8368 12.6602 20.251C12.6602 20.6652 12.996 21.001 13.4102 21.001H19.4102C19.8245 21.001 20.1602 20.6652 20.1602 20.251C20.1602 19.8368 19.8245 19.501 19.4102 19.501H13.4102Z" fill="#3D3787"/>
<path d="M14.2043 4.5755L14.2944 4.6275C15.0725 5.07671 15.7214 5.4513 16.1965 5.81795C16.698 6.20494 17.096 6.64914 17.2627 7.27132C17.4294 7.8935 17.3068 8.4772 17.066 9.06309C16.8989 9.46976 16.6531 9.92674 16.357 10.448L15.7217 10.0704L15.7135 10.0656L8.78816 6.06728L8.14051 5.68557C8.4406 5.17448 8.71098 4.73795 8.97717 4.393C9.36417 3.89152 9.80836 3.49349 10.4305 3.32678C11.0527 3.16006 11.6364 3.28267 12.2223 3.52347C12.7774 3.7516 13.4262 4.12624 14.2043 4.5755Z" fill="#3D3787"/>
<path d="M7.38908 6.98384L3.91111 13.0077C3.61332 13.5225 3.37786 13.9296 3.29063 14.3926C3.20339 14.8556 3.27458 15.3204 3.36461 15.9083L3.38887 16.0672C3.55505 17.1586 3.69203 18.0581 3.89863 18.7403C4.11471 19.4537 4.44686 20.0712 5.10013 20.4484C5.7534 20.8256 6.45427 20.8045 7.18015 20.6349C7.87422 20.4727 8.72175 20.1416 9.74998 19.7398L9.89973 19.6814C10.4539 19.4654 10.892 19.2946 11.2494 18.9876C11.6067 18.6805 11.8415 18.2731 12.1385 17.7578L15.6082 11.7479L14.9593 11.3623L8.02942 7.36127L7.38908 6.98384Z" fill="#3D3787"/>
</svg>
