<svg width="40" height="40" viewBox="0 0 40 40" fill="none" xmlns="http://www.w3.org/2000/svg">
<path fill-rule="evenodd" clip-rule="evenodd" d="M24.9378 14.6806C23.6739 13.4751 21.987 12.8184 20.2418 12.8454C17.0481 12.8454 14.3357 15 13.3686 17.9013C12.8558 19.4216 12.8558 21.068 13.3686 22.5884H13.373C14.3447 25.4852 17.0526 27.6398 20.2463 27.6398C21.8948 27.6398 23.3102 27.2182 24.4071 26.4734V26.4703C25.6981 25.6157 26.5797 24.2707 26.8541 22.7504H20.2418V18.0363H31.7886C31.9325 18.8549 32 19.6916 32 20.5238C32 24.2471 30.6693 27.3951 28.354 29.5272L28.3565 29.5291C26.3278 31.4003 23.5434 32.4844 20.2418 32.4844C15.6131 32.4844 11.3804 29.8754 9.30221 25.7416C7.56593 22.2825 7.56593 18.2072 9.30222 14.7481C11.3804 10.6098 15.6131 8.00082 20.2418 8.00082C23.2825 7.96484 26.2198 9.10737 28.4329 11.1855L24.9378 14.6806Z" fill="white"/>
</svg>
