<svg width="300" height="494" viewBox="0 0 300 494" fill="none" xmlns="http://www.w3.org/2000/svg">
<g clip-path="url(#clip0_1_2561)">
<rect width="300" height="494" rx="15" fill="#1A1C22"/>
<path d="M245.462 491.578H55.0566C56.1469 441.23 98.3033 400.65 150.259 400.65C202.216 400.65 244.372 441.23 245.462 491.578Z" fill="#A69EFF" stroke="#282C35" stroke-width="4"/>
<path d="M150.767 397.074C123.817 397.074 102.051 375.747 102.051 349.537C102.051 323.327 123.817 302 150.767 302C177.717 302 199.483 323.327 199.483 349.537C199.483 375.747 177.717 397.074 150.767 397.074Z" fill="#A69EFF" stroke="#282C35" stroke-width="4"/>
<path d="M150.224 92.9282C98.2679 92.9282 56.1115 52.3477 55.0213 2L245.463 2C244.372 52.3468 202.181 92.9282 150.224 92.9282Z" fill="#282C35" stroke="#282C35" stroke-width="4"/>
</g>
<defs>
<clipPath id="clip0_1_2561">
<rect width="300" height="494" fill="white"/>
</clipPath>
</defs>
</svg>
