<svg width="40" height="40" viewBox="0 0 40 40" fill="none" xmlns="http://www.w3.org/2000/svg">
<rect width="40" height="40" rx="10" fill="#6D61FF"/>
<path d="M20.9589 11.0866C20.0946 10.8283 19.2641 11.182 18.4676 11.6971C17.6676 12.2144 16.6966 13.0348 15.4818 14.0612L14.4051 14.9709C14.1987 15.1453 14.1152 15.2156 14.0324 15.2788C13.3318 15.814 12.4916 16.1232 11.6189 16.167C11.5158 16.1722 11.4078 16.1724 11.1402 16.1724L11.0972 16.1724C10.8666 16.1723 10.6889 16.1723 10.53 16.1905C9.20855 16.3421 8.16553 17.4113 8.01767 18.766C7.99989 18.9289 7.99994 19.111 8.00001 19.3475V20.6525C7.99994 20.889 7.99989 21.0711 8.01767 21.234C8.16553 22.5887 9.20855 23.6579 10.53 23.8095C10.6889 23.8277 10.8666 23.8277 11.0972 23.8276L11.1402 23.8276C11.4078 23.8276 11.5158 23.8278 11.6189 23.833C12.4916 23.8768 13.3318 24.186 14.0324 24.7212C14.1152 24.7844 14.1987 24.8547 14.4051 25.0291L15.4818 25.9388C16.6966 26.9652 17.6676 27.7856 18.4676 28.3029C19.2641 28.818 20.0946 29.1717 20.9589 28.9134C21.2458 28.8277 21.5177 28.6962 21.7646 28.5238C22.5088 28.0043 22.7707 27.1224 22.8896 26.1647C23.0089 25.2028 23.0089 23.9129 23.0089 22.2991V17.7009C23.0089 16.0871 23.0089 14.7972 22.8896 13.8353C22.7707 12.8776 22.5088 11.9957 21.7646 11.4762C21.5177 11.3038 21.2458 11.1723 20.9589 11.0866Z" fill="#FAFAFA"/>
<path d="M27.957 12.0095C27.6538 11.6987 27.1623 11.6987 26.8591 12.0095C26.5559 12.3202 26.5559 12.8241 26.8591 13.1349L27.5836 13.8777C28.2137 14.5236 28.492 14.8101 28.7014 15.0669C31.0293 17.9227 31.0293 22.0773 28.7014 24.9331C28.492 25.1899 28.2137 25.4764 27.5836 26.1223L26.8591 26.8651C26.5559 27.1759 26.5559 27.6798 26.8591 27.9905C27.1623 28.3013 27.6538 28.3013 27.957 27.9905L28.7184 27.2099C29.3018 26.612 29.6332 26.2722 29.8928 25.9537C32.7024 22.5071 32.7024 17.4929 29.8928 14.0463C29.6332 13.7278 29.3017 13.388 28.7184 12.79L27.957 12.0095Z" fill="#FAFAFA"/>
<path d="M25.8868 15.1928C25.5836 14.882 25.0921 14.882 24.7889 15.1928C24.4857 15.5036 24.4857 16.0075 24.7889 16.3183L25.2029 16.7427C25.2668 16.8082 25.2929 16.835 25.3139 16.8571C26.9729 18.6073 26.9729 21.3927 25.3139 23.1429C25.2929 23.165 25.2668 23.1918 25.2029 23.2573L24.7889 23.6817C24.4857 23.9925 24.4857 24.4964 24.7889 24.8072C25.0921 25.118 25.5836 25.118 25.8868 24.8072L26.3064 24.3771C26.3629 24.3191 26.3977 24.2834 26.4274 24.2521C28.6719 21.8843 28.6719 18.1157 26.4274 15.7479C26.3977 15.7165 26.3631 15.6811 26.3063 15.6229L25.8868 15.1928Z" fill="#FAFAFA"/>
</svg>
