<svg width="40" height="40" viewBox="0 0 40 40" fill="none" xmlns="http://www.w3.org/2000/svg">
<rect width="40" height="40" rx="10" fill="#6D61FF"/>
<path d="M16.5794 18.7652C15.6959 17.8267 15.1489 16.527 15.1489 15.0909C15.1489 13.6548 15.6959 12.3551 16.5794 11.4166C16.0707 11.1498 15.4985 11 14.8936 11C12.7785 11 11.0638 12.8316 11.0638 15.0909C11.0638 17.3503 12.7785 19.1818 14.8936 19.1818C15.4985 19.1818 16.0707 19.032 16.5794 18.7652Z" fill="white"/>
<path d="M16.1702 15.0909C16.1702 12.8316 17.8849 11 20 11C22.1151 11 23.8298 12.8316 23.8298 15.0909C23.8298 17.3503 22.1151 19.1818 20 19.1818C17.8849 19.1818 16.1702 17.3503 16.1702 15.0909Z" fill="white"/>
<path d="M23.4206 11.4166C24.3041 12.3551 24.8511 13.6548 24.8511 15.0909C24.8511 16.527 24.3041 17.8267 23.4206 18.7652C23.9293 19.032 24.5015 19.1818 25.1064 19.1818C27.2215 19.1818 28.9362 17.3503 28.9362 15.0909C28.9362 12.8316 27.2215 11 25.1064 11C24.5015 11 23.9293 11.1498 23.4206 11.4166Z" fill="white"/>
<path d="M13.1064 24.9091C13.1064 22.6497 14.821 20.8182 16.9362 20.8182H23.0638C25.179 20.8182 26.8936 22.6497 26.8936 24.9091C26.8936 27.1684 25.179 29 23.0638 29H16.9362C14.821 29 13.1064 27.1684 13.1064 24.9091Z" fill="white"/>
<path d="M8 23.8182C8 21.5588 9.71465 19.7273 11.8298 19.7273H16.9362C14.257 19.7273 12.0851 22.0473 12.0851 24.9091C12.0851 26.0271 12.4166 27.0625 12.9803 27.9091H11.8298C9.71465 27.9091 8 26.0775 8 23.8182Z" fill="white"/>
<path d="M27.9149 24.9091C27.9149 26.0271 27.5834 27.0625 27.0197 27.9091H28.1702C30.2853 27.9091 32 26.0775 32 23.8182C32 21.5588 30.2853 19.7273 28.1702 19.7273H23.0638C25.743 19.7273 27.9149 22.0473 27.9149 24.9091Z" fill="white"/>
</svg>
