<svg width="14" height="14" viewBox="0 0 14 14" fill="none" xmlns="http://www.w3.org/2000/svg">
<path d="M11.6053 0C10.8598 0.00143905 10.1575 0.349712 9.70415 0.941201C9.25226 1.53413 9.10115 2.30407 9.29688 3.02364L9.25514 3.04523L4.32463 5.50905L4.28289 5.53063C3.82956 4.94778 3.13302 4.6067 2.39474 4.60526C1.07216 4.60526 0 5.67743 0 7C0 8.32257 1.07216 9.39474 2.39474 9.39474C3.13302 9.39474 3.82956 9.05366 4.28289 8.46937L4.32463 8.49095L9.25514 10.9548L9.29544 10.9764C9.09971 11.6959 9.24938 12.4659 9.70271 13.0588C10.156 13.6517 10.8598 14 11.6053 14C12.9278 14 14 12.9278 14 11.6053C14 10.2827 12.9278 9.21053 11.6053 9.21053C10.926 9.21197 10.2798 9.49979 9.82648 10.0049L9.74877 9.96608L4.81826 7.50226L4.74198 7.46484C4.80243 7.15831 4.80243 6.84313 4.74198 6.5366L4.81826 6.49774L9.74877 4.03392L9.82504 3.99507C10.2784 4.50021 10.926 4.78947 11.6053 4.78947C12.9278 4.78947 14 3.71731 14 2.39474C14 1.07216 12.9278 0 11.6053 0Z" fill="#0BE288"/>
</svg>
