<svg width="40" height="40" viewBox="0 0 40 40" fill="none" xmlns="http://www.w3.org/2000/svg">
<rect width="40" height="40" rx="10" fill="#6D61FF"/>
<path d="M14.9553 10.25C14.5224 10.25 14.1256 10.2499 13.8028 10.2933C13.4473 10.3411 13.0716 10.4535 12.7626 10.7626C12.4535 11.0716 12.3411 11.4473 12.2933 11.8028C12.2499 12.1256 12.25 12.5224 12.25 12.9553L12.25 29C12.25 29.4142 12.5858 29.75 13 29.75C13.4142 29.75 13.75 29.4142 13.75 29L13.75 22.75H25.1979C26.6074 22.75 27.75 21.6074 27.75 20.1979C27.75 19.3576 27.3363 18.571 26.6438 18.0949L26.3625 17.9016C25.3795 17.2258 25.3795 15.7743 26.3625 15.0984L26.6438 14.9051C27.3363 14.429 27.75 13.6425 27.75 12.8021C27.75 11.3926 26.6074 10.25 25.1979 10.25L14.9553 10.25Z" fill="#FAFAFA"/>
</svg>
