<svg width="300" height="578" viewBox="0 0 300 578" fill="none" xmlns="http://www.w3.org/2000/svg">
<g clip-path="url(#clip0_1_2636)">
<rect width="300" height="578" rx="15" fill="#1A1C22"/>
<path d="M150.224 92.9282C98.2679 92.9282 56.1115 52.3477 55.0213 2L245.463 2C244.372 52.3468 202.181 92.9282 150.224 92.9282Z" fill="#282C35" stroke="#282C35" stroke-width="4"/>
<path d="M245.463 575.578H55.0576C56.1479 525.23 98.3042 484.65 150.26 484.65C202.216 484.65 244.373 525.23 245.463 575.578Z" fill="#A69EFF" stroke="#282C35" stroke-width="4"/>
<path d="M150.768 481.074C123.818 481.074 102.052 459.747 102.052 433.537C102.052 407.327 123.818 386 150.768 386C177.718 386 199.484 407.327 199.484 433.537C199.484 459.747 177.718 481.074 150.768 481.074Z" fill="#A69EFF" stroke="#282C35" stroke-width="4"/>
</g>
<defs>
<clipPath id="clip0_1_2636">
<rect width="300" height="578" fill="white"/>
</clipPath>
</defs>
</svg>
