<svg width="14" height="14" viewBox="0 0 14 14" fill="none" xmlns="http://www.w3.org/2000/svg">
<path fill-rule="evenodd" clip-rule="evenodd" d="M7.0264 1.3125C8.09771 1.3125 8.93748 1.31249 9.60372 1.38467C10.2836 1.45834 10.8345 1.61136 11.3049 1.95309C11.5896 2.15997 11.84 2.41039 12.0469 2.69514C12.3886 3.16549 12.5417 3.71638 12.6153 4.39628C12.6875 5.06251 12.6875 5.90226 12.6875 6.97355V7.02641C12.6875 8.09769 12.6875 8.93749 12.6153 9.60372C12.5417 10.2836 12.3886 10.8345 12.0469 11.3049C11.84 11.5896 11.5896 11.84 11.3049 12.0469C10.8345 12.3886 10.2836 12.5417 9.60372 12.6153C8.93749 12.6875 8.09774 12.6875 7.02645 12.6875H6.97359C5.90231 12.6875 5.06251 12.6875 4.39628 12.6153C3.71638 12.5417 3.16549 12.3886 2.69514 12.0469C2.41039 11.84 2.15997 11.5896 1.95309 11.3049C1.61136 10.8345 1.45834 10.2836 1.38467 9.60372C1.31249 8.93748 1.3125 8.09771 1.3125 7.0264V6.9736C1.3125 5.90229 1.31249 5.06252 1.38467 4.39628C1.45834 3.71638 1.61136 3.16549 1.95309 2.69514C2.15997 2.41039 2.41039 2.15997 2.69514 1.95309C3.16549 1.61136 3.71638 1.45834 4.39628 1.38467C5.06252 1.31249 5.90229 1.3125 6.9736 1.3125H7.0264ZM7.4375 4.08333C7.4375 3.84171 7.24162 3.64583 7 3.64583C6.75838 3.64583 6.5625 3.84171 6.5625 4.08333V6.19408L5.12177 4.75335C4.95092 4.5825 4.67391 4.5825 4.50306 4.75335C4.3322 4.92421 4.3322 5.20122 4.50306 5.37207L5.69349 6.5625H4.08333C3.84171 6.5625 3.64583 6.75838 3.64583 7C3.64583 7.24162 3.84171 7.4375 4.08333 7.4375H5.94378L4.50314 8.87814C4.33229 9.04899 4.33229 9.326 4.50314 9.49686C4.674 9.66771 4.951 9.66771 5.12186 9.49686L6.5625 8.05622V9.91667C6.5625 10.1583 6.75838 10.3542 7 10.3542C7.24162 10.3542 7.4375 10.1583 7.4375 9.91667V8.30651L8.62785 9.49686C8.7987 9.66771 9.07571 9.66771 9.24656 9.49686C9.41742 9.326 9.41742 9.04899 9.24656 8.87814L7.80592 7.4375H9.91667C10.1583 7.4375 10.3542 7.24162 10.3542 7C10.3542 6.75838 10.1583 6.5625 9.91667 6.5625H8.05622L9.24665 5.37207C9.4175 5.20122 9.4175 4.92421 9.24665 4.75335C9.07579 4.5825 8.79878 4.5825 8.62793 4.75335L7.4375 5.94378V4.08333Z" fill="#76809C"/>
</svg>
