<svg width="24" height="24" viewBox="0 0 24 24" fill="none" xmlns="http://www.w3.org/2000/svg">
<path fill-rule="evenodd" clip-rule="evenodd" d="M20.0451 18.9389C21 17.6246 21 15.7497 21 12C21 8.25027 21 6.3754 20.0451 5.06107C19.7367 4.6366 19.3634 4.26331 18.9389 3.95491C17.6246 3 15.7497 3 12 3C8.25027 3 6.3754 3 5.06107 3.95491C4.6366 4.26331 4.26331 4.6366 3.95491 5.06107C3 6.3754 3 8.25027 3 12C3 15.7497 3 17.6246 3.95491 18.9389C4.26331 19.3634 4.6366 19.7367 5.06107 20.0451C6.3754 21 8.25027 21 12 21C15.7497 21 17.6246 21 18.9389 20.0451C19.3634 19.7367 19.7367 19.3634 20.0451 18.9389ZM11.25 16C11.25 16.4142 11.5858 16.75 12 16.75C12.4142 16.75 12.75 16.4142 12.75 16L12.75 9.06379C12.7642 9.07487 12.7787 9.08635 12.7935 9.09823C13.1161 9.35733 13.4997 9.74269 14.0695 10.3176L15.4673 11.728C15.7589 12.0222 16.2338 12.0243 16.528 11.7327C16.8222 11.4411 16.8243 10.9662 16.5327 10.672L15.1044 9.2309C14.573 8.69472 14.1298 8.24754 13.7328 7.92869C13.3163 7.59427 12.8787 7.33989 12.3455 7.27193C12.2308 7.25731 12.1154 7.25 12 7.25C11.8846 7.25 11.7692 7.25731 11.6545 7.27193C11.1213 7.33989 10.6837 7.59426 10.2672 7.92869C9.87022 8.24753 9.42704 8.69471 8.89566 9.23089L7.46731 10.672C7.17573 10.9662 7.17784 11.4411 7.47204 11.7327C7.76624 12.0243 8.24111 12.0222 8.53269 11.728L9.93054 10.3176C10.5003 9.74268 10.8839 9.35733 11.2065 9.09823C11.2213 9.08635 11.2358 9.07487 11.25 9.06379L11.25 16Z" fill="#444A5B"/>
</svg>
