<svg width="40" height="40" viewBox="0 0 40 40" fill="none" xmlns="http://www.w3.org/2000/svg">
<rect width="40" height="40" rx="10" fill="#6D61FF"/>
<path fill-rule="evenodd" clip-rule="evenodd" d="M32 20C32 15.0004 32 12.5005 30.7268 10.7481C30.3156 10.1821 29.8179 9.68442 29.2519 9.27322C27.4995 8 24.9996 8 20 8C18.8814 8 17.888 8 17 8.01426L17 8.10776C17.0001 9.24378 17.0001 9.93576 16.9056 10.5327C16.386 13.8132 13.8132 16.386 10.5327 16.9056C9.93576 17.0002 9.24378 17.0001 8.10776 17L8.01426 17C8 17.888 8 18.8814 8 20C8 24.9996 8 27.4995 9.27322 29.2519C9.68441 29.8179 10.1821 30.3156 10.7481 30.7268C12.5005 32 15.0004 32 20 32C24.9996 32 27.4995 32 29.2519 30.7268C29.8179 30.3156 30.3156 29.8179 30.7268 29.2519C32 27.4995 32 24.9996 32 20ZM20.2753 17.4643C20.295 17.4485 20.3144 17.4332 20.3333 17.4184V26.6667C20.3333 27.219 20.781 27.6667 21.3333 27.6667C21.8856 27.6667 22.3333 27.219 22.3333 26.6667V17.4184C22.3523 17.4332 22.3716 17.4485 22.3913 17.4643C22.8215 17.8098 23.3329 18.3236 24.0926 19.0901L25.9564 20.9706C26.3452 21.3629 26.9783 21.3657 27.3706 20.9769C27.7629 20.5881 27.7657 19.955 27.3769 19.5627L25.4725 17.6412C24.764 16.9263 24.173 16.33 23.6437 15.9049C23.0884 15.459 22.5049 15.1199 21.794 15.0292C21.4881 14.9903 21.1786 14.9903 20.8727 15.0292C20.1617 15.1199 19.5782 15.459 19.023 15.9049C18.4936 16.33 17.9027 16.9263 17.1942 17.6412L15.2897 19.5627C14.901 19.955 14.9038 20.5881 15.2961 20.9769C15.6883 21.3657 16.3215 21.3629 16.7103 20.9706L18.574 19.0901C19.3338 18.3236 19.8451 17.8098 20.2753 17.4643Z" fill="white"/>
<path d="M14.9302 10.2198C14.9954 9.80861 14.9998 9.3009 15 8.08712C13.0805 8.21299 11.7838 8.52076 10.7481 9.27322C10.1821 9.68442 9.68441 10.1821 9.27322 10.7481C8.52075 11.7838 8.21299 13.0805 8.08711 15C9.3009 14.9998 9.80861 14.9954 10.2198 14.9302C12.6445 14.5462 14.5462 12.6445 14.9302 10.2198Z" fill="white"/>
</svg>
